<mxfile host="app.diagrams.net" agent="Mozilla/5.0 (Windows NT 10.0; Win64; x64) AppleWebKit/537.36 (KHTML, like Gecko) Chrome/136.0.0.0 Safari/537.36" version="26.2.14">
  <diagram name="第 1 页" id="pCRtqCFwRrJEKpGFq1MI">
    <mxGraphModel dx="799" dy="447" grid="1" gridSize="10" guides="1" tooltips="1" connect="1" arrows="1" fold="1" page="1" pageScale="1" pageWidth="827" pageHeight="1169" math="0" shadow="0">
      <root>
        <mxCell id="0" />
        <mxCell id="1" parent="0" />
        <mxCell id="LkC6zOXMjJJBTtj6kr6R-34" value="" style="edgeStyle=orthogonalEdgeStyle;rounded=0;orthogonalLoop=1;jettySize=auto;html=1;" edge="1" parent="1">
          <mxGeometry relative="1" as="geometry">
            <mxPoint x="135" y="160" as="sourcePoint" />
            <mxPoint x="135" y="240" as="targetPoint" />
          </mxGeometry>
        </mxCell>
        <mxCell id="LkC6zOXMjJJBTtj6kr6R-36" value="" style="edgeStyle=orthogonalEdgeStyle;rounded=0;orthogonalLoop=1;jettySize=auto;html=1;" edge="1" parent="1">
          <mxGeometry relative="1" as="geometry">
            <mxPoint x="160" y="144" as="sourcePoint" />
            <mxPoint x="240" y="144" as="targetPoint" />
          </mxGeometry>
        </mxCell>
        <mxCell id="LkC6zOXMjJJBTtj6kr6R-44" style="rounded=0;orthogonalLoop=1;jettySize=auto;html=1;exitX=1;exitY=1;exitDx=0;exitDy=0;entryX=0;entryY=0;entryDx=0;entryDy=0;" edge="1" parent="1">
          <mxGeometry relative="1" as="geometry">
            <mxPoint x="151.14213562373095" y="157.142135623731" as="sourcePoint" />
            <mxPoint x="242.85786437627212" y="248.85786437627218" as="targetPoint" />
          </mxGeometry>
        </mxCell>
        <mxCell id="LkC6zOXMjJJBTtj6kr6R-13" value="&lt;font style=&quot;color: rgb(0, 0, 0); font-size: 18px;&quot;&gt;A&lt;/font&gt;" style="ellipse;whiteSpace=wrap;html=1;aspect=fixed;fillColor=#66B2FF;" vertex="1" parent="1">
          <mxGeometry x="120" y="120" width="40" height="40" as="geometry" />
        </mxCell>
        <mxCell id="LkC6zOXMjJJBTtj6kr6R-37" value="" style="edgeStyle=orthogonalEdgeStyle;rounded=0;orthogonalLoop=1;jettySize=auto;html=1;" edge="1" parent="1">
          <mxGeometry relative="1" as="geometry">
            <mxPoint x="240" y="136" as="sourcePoint" />
            <mxPoint x="160" y="136" as="targetPoint" />
          </mxGeometry>
        </mxCell>
        <mxCell id="LkC6zOXMjJJBTtj6kr6R-40" value="" style="edgeStyle=orthogonalEdgeStyle;rounded=0;orthogonalLoop=1;jettySize=auto;html=1;" edge="1" parent="1">
          <mxGeometry relative="1" as="geometry">
            <mxPoint x="256" y="160" as="sourcePoint" />
            <mxPoint x="256" y="240" as="targetPoint" />
          </mxGeometry>
        </mxCell>
        <mxCell id="LkC6zOXMjJJBTtj6kr6R-46" style="rounded=0;orthogonalLoop=1;jettySize=auto;html=1;exitX=0;exitY=1;exitDx=0;exitDy=0;entryX=1;entryY=0;entryDx=0;entryDy=0;" edge="1" parent="1">
          <mxGeometry relative="1" as="geometry">
            <mxPoint x="248.85786437627212" y="157.14213562372777" as="sourcePoint" />
            <mxPoint x="157.14213562373095" y="248.85786437626894" as="targetPoint" />
          </mxGeometry>
        </mxCell>
        <mxCell id="LkC6zOXMjJJBTtj6kr6R-14" value="&lt;font style=&quot;color: rgb(0, 0, 0); font-size: 18px;&quot;&gt;B&lt;/font&gt;" style="ellipse;whiteSpace=wrap;html=1;aspect=fixed;fillColor=#66B2FF;" vertex="1" parent="1">
          <mxGeometry x="240" y="120" width="40" height="40" as="geometry" />
        </mxCell>
        <mxCell id="LkC6zOXMjJJBTtj6kr6R-39" value="" style="edgeStyle=orthogonalEdgeStyle;rounded=0;orthogonalLoop=1;jettySize=auto;html=1;" edge="1" parent="1">
          <mxGeometry relative="1" as="geometry">
            <mxPoint x="240" y="256" as="sourcePoint" />
            <mxPoint x="160" y="256" as="targetPoint" />
          </mxGeometry>
        </mxCell>
        <mxCell id="LkC6zOXMjJJBTtj6kr6R-41" value="" style="edgeStyle=orthogonalEdgeStyle;rounded=0;orthogonalLoop=1;jettySize=auto;html=1;" edge="1" parent="1">
          <mxGeometry relative="1" as="geometry">
            <mxPoint x="264" y="240" as="sourcePoint" />
            <mxPoint x="264" y="160" as="targetPoint" />
          </mxGeometry>
        </mxCell>
        <mxCell id="LkC6zOXMjJJBTtj6kr6R-43" style="rounded=0;orthogonalLoop=1;jettySize=auto;html=1;exitX=0;exitY=0;exitDx=0;exitDy=0;entryX=1;entryY=1;entryDx=0;entryDy=0;" edge="1" parent="1">
          <mxGeometry relative="1" as="geometry">
            <mxPoint x="248.85786437627212" y="242.85786437627218" as="sourcePoint" />
            <mxPoint x="157.14213562373095" y="151.142135623731" as="targetPoint" />
          </mxGeometry>
        </mxCell>
        <mxCell id="LkC6zOXMjJJBTtj6kr6R-20" value="&lt;font style=&quot;color: rgb(0, 0, 0); font-size: 18px;&quot;&gt;C&lt;/font&gt;" style="ellipse;whiteSpace=wrap;html=1;aspect=fixed;fillColor=#66B2FF;" vertex="1" parent="1">
          <mxGeometry x="240" y="240" width="40" height="40" as="geometry" />
        </mxCell>
        <mxCell id="LkC6zOXMjJJBTtj6kr6R-35" value="" style="edgeStyle=orthogonalEdgeStyle;rounded=0;orthogonalLoop=1;jettySize=auto;html=1;" edge="1" parent="1">
          <mxGeometry relative="1" as="geometry">
            <mxPoint x="144" y="240" as="sourcePoint" />
            <mxPoint x="144" y="160" as="targetPoint" />
          </mxGeometry>
        </mxCell>
        <mxCell id="LkC6zOXMjJJBTtj6kr6R-38" value="" style="edgeStyle=orthogonalEdgeStyle;rounded=0;orthogonalLoop=1;jettySize=auto;html=1;" edge="1" parent="1">
          <mxGeometry relative="1" as="geometry">
            <mxPoint x="160" y="264" as="sourcePoint" />
            <mxPoint x="240" y="264" as="targetPoint" />
          </mxGeometry>
        </mxCell>
        <mxCell id="LkC6zOXMjJJBTtj6kr6R-45" style="rounded=0;orthogonalLoop=1;jettySize=auto;html=1;exitX=1;exitY=0;exitDx=0;exitDy=0;entryX=0;entryY=1;entryDx=0;entryDy=0;" edge="1" parent="1">
          <mxGeometry relative="1" as="geometry">
            <mxPoint x="151.14213562373095" y="242.85786437626894" as="sourcePoint" />
            <mxPoint x="242.85786437627212" y="151.14213562372777" as="targetPoint" />
          </mxGeometry>
        </mxCell>
        <mxCell id="LkC6zOXMjJJBTtj6kr6R-22" value="&lt;font style=&quot;color: rgb(0, 0, 0); font-size: 18px;&quot;&gt;D&lt;/font&gt;" style="ellipse;whiteSpace=wrap;html=1;aspect=fixed;fillColor=#66B2FF;" vertex="1" parent="1">
          <mxGeometry x="120" y="240" width="40" height="40" as="geometry" />
        </mxCell>
        <mxCell id="LkC6zOXMjJJBTtj6kr6R-47" value="&lt;font style=&quot;font-size: 18px;&quot;&gt;完全有向图&lt;/font&gt;" style="text;html=1;align=center;verticalAlign=middle;whiteSpace=wrap;rounded=0;" vertex="1" parent="1">
          <mxGeometry x="140" y="80" width="130" height="30" as="geometry" />
        </mxCell>
      </root>
    </mxGraphModel>
  </diagram>
</mxfile>
